# xmcd
#
# Track frame offsets:
#	150
#	18415
#	36478
#	53328
#	66967
#	86223
#	104586
#	121603
#	139182
#	152081
#	166177
#	181642
#	200093
#	221800
#	237152
#	257292
#	274307
#	288699
#	308657
#	323286
#
# Disc length: 4742 seconds
#
# Revision: 2
# Processed by: cddbd v1.5PL3 Copyright (c) Steve Scherf et al.
# Submitted via: EasyCDDAExtractor 5.0.6
#
DISCID=19128414
DTITLE=Nana Mouskour - Boleros Canciones Recuerdos CD2
DYEAR=2002
DGENRE=Chanson
TTITLE0=La andaluza
TTITLE1=Libertad
TTITLE2=Amapola
TTITLE3=De colores
TTITLE4=La paloma
TTITLE5=Alfonsina y el mar
TTITLE6=Guantanamera
TTITLE7=Soledad
TTITLE8=Canta canta a mi gente
TTITLE9=Malagueña
TTITLE10=Aleluya
TTITLE11=Recuerdos de la alhambra
TTITLE12=En aranjuez con mi amor
TTITLE13=Plaisir d'amour
TTITLE14=Amazing grace
TTITLE15=La violetera
TTITLE16=Ta pedia to pirea
TTITLE17=Only love
TTITLE18=En recuerdo de ti
TTITLE19=Medley: directo (white rose of athens, ximeroni, zorba le grec)
EXTD=
EXTT0=
EXTT1=
EXTT2=
EXTT3=
EXTT4=
EXTT5=
EXTT6=
EXTT7=
EXTT8=
EXTT9=
EXTT10=
EXTT11=
EXTT12=
EXTT13=
EXTT14=
EXTT15=
EXTT16=
EXTT17=
EXTT18=
EXTT19=
PLAYORDER=
